<svg xmlns="http://www.w3.org/2000/svg" width="19.5" height="19.493" viewBox="0 0 19.5 19.493">
    <path id="home-Regular_1_" d="M222.978,1017.317l-5-4.02a4.783,4.783,0,0,0-5.956,0l-5,4.02a4.72,4.72,0,0,0-1.772,3.7v5.992a4.753,4.753,0,0,0,4.75,4.745h2.75v-4.745a2.25,2.25,0,0,1,4.5,0v4.745H220a4.753,4.753,0,0,0,4.75-4.745v-5.992A4.72,4.72,0,0,0,222.978,1017.317Zm.272,9.688a3.251,3.251,0,0,1-3.25,3.245h-1.25v-3.245a3.75,3.75,0,0,0-7.5,0v3.245H210a3.251,3.251,0,0,1-3.25-3.245v-5.992a3.227,3.227,0,0,1,1.211-2.527l5-4.02a3.275,3.275,0,0,1,4.077,0l5,4.02a3.227,3.227,0,0,1,1.211,2.527v5.992Z" transform="translate(-205.25 -1012.257)" fill="#020202"/>
</svg>
