<svg xmlns="http://www.w3.org/2000/svg" width="19.5" height="20.312" viewBox="0 0 19.5 20.312">
    <path id="plus-square-Regular_1_" d="M602,1012.25h-6a6.9,6.9,0,0,0-6.75,7.031v6.25a6.9,6.9,0,0,0,6.75,7.031h6a6.9,6.9,0,0,0,6.75-7.031v-6.25A6.9,6.9,0,0,0,602,1012.25Zm5.25,13.281A5.369,5.369,0,0,1,602,1031h-6a5.369,5.369,0,0,1-5.25-5.469v-6.25a5.369,5.369,0,0,1,5.25-5.469h6a5.369,5.369,0,0,1,5.25,5.469Zm-3.5-3.125a.766.766,0,0,1-.75.781h-3.25v3.385a.751.751,0,1,1-1.5,0v-3.385H595a.782.782,0,0,1,0-1.562h3.25v-3.385a.751.751,0,1,1,1.5,0v3.385H603A.766.766,0,0,1,603.75,1022.406Z" transform="translate(-589.25 -1012.25)" fill="#020202"/>
</svg>
