<svg xmlns="http://www.w3.org/2000/svg" width="19.5" height="19.499" viewBox="0 0 19.5 19.499">
    <path id="package-Regular_1_" d="M605.816,1158.711l-4.4-1.954a6.044,6.044,0,0,0-4.836,0l-4.4,1.954a4.7,4.7,0,0,0-2.934,4.264v6.05a4.7,4.7,0,0,0,2.934,4.264l4.4,1.954a5.97,5.97,0,0,0,2.394.5c.008,0,.015.005.023.005a.194.194,0,0,0,.023-.005,5.97,5.97,0,0,0,2.394-.5l4.4-1.954a4.7,4.7,0,0,0,2.934-4.264v-6.05A4.7,4.7,0,0,0,605.816,1158.711Zm-8.625-.582h0a4.529,4.529,0,0,1,3.618,0l4.4,1.954a3.82,3.82,0,0,1,.8.481l-2.51,1.116-7.151-3.177Zm-4.4,1.953,1.707-.758,7.151,3.177-1.449.644a3.128,3.128,0,0,1-2.405,0l-5.806-2.581A3.907,3.907,0,0,1,592.792,1160.082Zm0,11.835a3.221,3.221,0,0,1-2.043-2.893v-6.05a2.862,2.862,0,0,1,.271-1.2l6.167,2.741a4.361,4.361,0,0,0,1.062.3v9.358a4.355,4.355,0,0,1-1.058-.3Zm14.457-2.892a3.221,3.221,0,0,1-2.043,2.893l-4.4,1.954a4.34,4.34,0,0,1-1.058.3v-9.358a4.365,4.365,0,0,0,1.062-.3l6.167-2.741a2.877,2.877,0,0,1,.271,1.2Z" transform="translate(-589.25 -1156.252)" fill="#020202"/>
</svg>
