<svg xmlns="http://www.w3.org/2000/svg" width="25" height="25" viewBox="0 0 25 25">
    <g id="Group_74624" data-name="Group 74624" transform="translate(-33 -233)">
        <rect id="Path" width="25" height="25" rx="3" transform="translate(33 233)" fill="#ce0c3d" opacity="0.1"/>
        <g id="pdf" transform="translate(39.125 237)">
            <g id="Group_74609" data-name="Group 74609">
                <g id="Group_74608" data-name="Group 74608">
                    <g id="Group_74607" data-name="Group 74607">
                        <path id="Path_205788" data-name="Path 205788" d="M16.4,3.645,12.855.1A.354.354,0,0,0,12.6,0H5.167A1.418,1.418,0,0,0,3.75,1.417V15.583A1.418,1.418,0,0,0,5.167,17h9.917A1.418,1.418,0,0,0,16.5,15.583V3.9A.354.354,0,0,0,16.4,3.645ZM12.958,1.209l2.333,2.333H13.667a.709.709,0,0,1-.708-.708Zm2.833,14.374a.709.709,0,0,1-.708.708H5.167a.709.709,0,0,1-.708-.708V1.417A.709.709,0,0,1,5.167.708H12.25V2.833A1.418,1.418,0,0,0,13.667,4.25h2.125Z" transform="translate(-3.75)" fill="#ce0c3d"/>
                        <path id="Path_205789" data-name="Path 205789" d="M13.556,14.73A10.265,10.265,0,0,1,12.709,14c-.27-.27-.51-.531-.719-.78a7.93,7.93,0,0,0,.469-1.8c0-1.176-.425-1.417-1.062-1.417-.485,0-1.062.252-1.062,1.451a3.4,3.4,0,0,0,.863,1.916c-.14.429-.305.923-.491,1.48-.089.267-.186.515-.288.744-.083.037-.164.075-.242.114-.282.141-.549.267-.8.385-1.131.535-1.878.89-1.878,1.589,0,.508.552.822,1.063.822.659,0,1.653-.88,2.379-2.361a14.091,14.091,0,0,1,2.431-.656,4.063,4.063,0,0,0,1.565.892c.878,0,1.063-.508,1.063-.934,0-.837-.957-.837-1.417-.837A8.389,8.389,0,0,0,13.556,14.73ZM8.563,17.792a.56.56,0,0,1-.354-.114c0-.251.749-.606,1.473-.949l.14-.066C9.29,17.434,8.763,17.792,8.563,17.792Zm2.479-6.341c0-.742.23-.742.354-.742.25,0,.354,0,.354.708a5.679,5.679,0,0,1-.282,1.106A2.176,2.176,0,0,1,11.042,11.451Zm.272,3.807q.033-.092.064-.187c.131-.394.25-.748.355-1.067q.22.243.475.5c.066.066.231.216.45.4C12.222,15,11.757,15.116,11.313,15.257Zm3.978.184c0,.159,0,.225-.329.227a2.61,2.61,0,0,1-.595-.34c.1-.011.174-.017.215-.017C15.107,15.312,15.255,15.364,15.292,15.441Z" transform="translate(-5.375 -4.333)" fill="#ce0c3d"/>
                    </g>
                </g>
            </g>
        </g>
    </g>
</svg>
