<svg xmlns="http://www.w3.org/2000/svg" width="20.313" height="20.312" viewBox="0 0 20.313 20.312">
    <path id="pen-Regular_1_" d="M800.241,1085.571a4.512,4.512,0,0,0-6.379,0l-10.972,10.972a2.846,2.846,0,0,0-.8,1.555l-.823,4.935a1.313,1.313,0,0,0,1.3,1.528,1.235,1.235,0,0,0,.214-.018l4.937-.823a2.844,2.844,0,0,0,1.554-.8l10.972-10.972a4.51,4.51,0,0,0,0-6.378Zm-12.076,16.246a1.292,1.292,0,0,1-.706.363l-4.592.765.765-4.59a1.292,1.292,0,0,1,.364-.706l8.42-8.42,4.169,4.169Zm10.972-10.972-1.448,1.448-4.169-4.169,1.448-1.448a2.948,2.948,0,1,1,4.169,4.169Z" transform="translate(-781.248 -1084.25)" fill="#2ecc71"/>
</svg>
