<svg xmlns="http://www.w3.org/2000/svg" width="17.875" height="17.875" viewBox="0 0 17.875 17.875">
    <path id="trash-Regular_1_" d="M654.438,1087h-3.262a1.145,1.145,0,0,1-1.087-.783l-.29-.87a1.6,1.6,0,0,0-1.522-1.1H644.1a1.6,1.6,0,0,0-1.522,1.1l-.29.869a1.144,1.144,0,0,1-1.087.784h-3.262a.688.688,0,0,0,0,1.375h1.19l.7,10.542a3.446,3.446,0,0,0,3.43,3.208h5.855a3.447,3.447,0,0,0,3.43-3.208l.7-10.542h1.189a.688.688,0,0,0,0-1.376Zm-10.557-1.218a.229.229,0,0,1,.217-.157h4.179a.229.229,0,0,1,.217.156l.29.87a2.5,2.5,0,0,0,.148.348h-5.489a2.511,2.511,0,0,0,.148-.349Zm7.292,13.043a2.067,2.067,0,0,1-2.058,1.925H643.26a2.067,2.067,0,0,1-2.058-1.925l-.7-10.45h.694a2.528,2.528,0,0,0,.291-.023.682.682,0,0,0,.114.023h9.167a.672.672,0,0,0,.114-.023,2.538,2.538,0,0,0,.291.023h.694Zm-2.464-6.554v4.583a.688.688,0,0,1-1.375,0v-4.583a.688.688,0,0,1,1.375,0Zm-3.667,0v4.583a.688.688,0,0,1-1.375,0v-4.583a.688.688,0,0,1,1.375,0Z" transform="translate(-637.25 -1084.251)" fill="#ce0c3d"/>
</svg>
