<svg xmlns="http://www.w3.org/2000/svg" width="20.313" height="16.146" viewBox="0 0 20.313 16.146">
    <path id="envelope-Regular_1_" d="M556.615,1302.25H546.2a4.954,4.954,0,0,0-4.948,4.948v6.25a4.954,4.954,0,0,0,4.948,4.948h10.417a4.954,4.954,0,0,0,4.948-4.948v-6.25A4.954,4.954,0,0,0,556.615,1302.25Zm-10.417,1.563h10.417a3.39,3.39,0,0,1,3.128,2.1l-6.458,4.306a3.38,3.38,0,0,1-3.755,0l-6.458-4.306A3.386,3.386,0,0,1,546.2,1303.813Zm10.417,13.021H546.2a3.389,3.389,0,0,1-3.385-3.385v-5.832l5.849,3.9a4.937,4.937,0,0,0,5.49,0l5.849-3.9v5.832A3.389,3.389,0,0,1,556.615,1316.833Z" transform="translate(-541.25 -1302.25)" fill="#fff"/>
</svg>
