<svg xmlns="http://www.w3.org/2000/svg" width="19.5" height="17.5" viewBox="0 0 19.5 17.5">
    <path id="inbox-Regular_1_" d="M642.25,1308a.75.75,0,0,1,.75-.75h8a.75.75,0,0,1,0,1.5h-8A.75.75,0,0,1,642.25,1308Zm1.75-2.25h6a.75.75,0,0,0,0-1.5h-6a.75.75,0,0,0,0,1.5Zm12.75,5.737V1314a4.756,4.756,0,0,1-4.75,4.75H642a4.756,4.756,0,0,1-4.75-4.75v-2.513a3.762,3.762,0,0,1,.192-1.186l1.935-5.8a4.744,4.744,0,0,1,4.506-3.248h6.234a4.744,4.744,0,0,1,4.506,3.248l1.935,5.8A3.752,3.752,0,0,1,656.75,1311.487Zm-17.71-1.237H644a.75.75,0,0,1,.75.75,2.25,2.25,0,0,0,4.5,0,.75.75,0,0,1,.75-.75h4.96l-1.759-5.278a3.246,3.246,0,0,0-3.083-2.222h-6.234a3.246,3.246,0,0,0-3.083,2.222Zm16.21,3.75v-2.25h-4.575a3.751,3.751,0,0,1-7.35,0H638.75V1314a3.254,3.254,0,0,0,3.25,3.25h10A3.254,3.254,0,0,0,655.25,1314Z" transform="translate(-637.25 -1301.25)" fill="#fff"/>
</svg>
