<svg xmlns="http://www.w3.org/2000/svg" width="17.592" height="19.555" viewBox="0 0 17.592 19.555">
    <path id="Path_46098" data-name="Path 46098" d="M16.992,3.667H9L8.2,1H2.6A1.7,1.7,0,0,0,1,2.778V16.11a1.7,1.7,0,0,0,1.6,1.778H9l.8,2.667h7.2a1.7,1.7,0,0,0,1.6-1.778V5.444A1.7,1.7,0,0,0,16.992,3.667ZM5.8,14.333a4.24,4.24,0,0,1-4-4.444,4.24,4.24,0,0,1,4-4.444A3.674,3.674,0,0,1,8.476,6.6L7.421,7.729A2.192,2.192,0,0,0,5.8,7.035,2.7,2.7,0,0,0,3.279,9.888,2.7,2.7,0,0,0,5.8,12.742,2.284,2.284,0,0,0,8.133,10.6H5.8V9.08H9.54a4.254,4.254,0,0,1,.1.907C9.636,12.528,8.109,14.333,5.8,14.333Zm4.934-4.818H13.69A9.167,9.167,0,0,1,12.051,12.6a9.923,9.923,0,0,1-.688-.978l-.632-2.107Zm6.661,8.817a.85.85,0,0,1-.8.889H11.4L12.994,17l-.832-2.755L14.642,17l.736-.818-2.639-2.889.016-.018a10.256,10.256,0,0,0,1.919-3.751h1.519V8.369H12.571V7.222H11.539V8.369H10.388L9.364,5h7.229a.85.85,0,0,1,.8.889Z" transform="translate(-1 -1)" fill="#fff"/>
</svg>
