<svg xmlns="http://www.w3.org/2000/svg" width="15.5" height="19.5" viewBox="0 0 15.5 19.5">
    <path id="map-marker-Regular_1_" d="M215,1304.25a3.75,3.75,0,1,0,3.75,3.75A3.754,3.754,0,0,0,215,1304.25Zm0,6a2.25,2.25,0,1,1,2.25-2.25A2.252,2.252,0,0,1,215,1310.25Zm0-10a7.578,7.578,0,0,0-7.746,7.75c0,6.208,4.736,10.076,6.771,11.45a1.734,1.734,0,0,0,1.948,0c2.039-1.377,6.781-5.25,6.781-11.452A7.581,7.581,0,0,0,215,1300.25Zm.134,17.958a.236.236,0,0,1-.269,0c-1.434-.968-6.111-4.565-6.111-10.208a6.25,6.25,0,1,1,12.5,0C221.25,1313.483,216.97,1316.966,215.13,1318.208Z" transform="translate(-207.25 -1300.25)" fill="#fff"/>
</svg>
