<svg xmlns="http://www.w3.org/2000/svg" width="15.498" height="19.5" viewBox="0 0 15.498 19.5">
    <path id="user-Regular_1_" d="M695,1238.75a5.25,5.25,0,1,0-5.25-5.25A5.256,5.256,0,0,0,695,1238.75Zm0-9a3.75,3.75,0,1,1-3.75,3.75A3.754,3.754,0,0,1,695,1229.75Zm7.75,14.217v1.011a3.769,3.769,0,0,1-.961,2.522.75.75,0,1,1-1.117-1,2.278,2.278,0,0,0,.579-1.521v-1.011a3.259,3.259,0,0,0-2.443-3.185,1.02,1.02,0,0,0-.746.1,6.308,6.308,0,0,1-6.116,0,1.008,1.008,0,0,0-.751-.1,3.262,3.262,0,0,0-2.444,3.186v1.011a2.274,2.274,0,0,0,.579,1.521.75.75,0,0,1-1.117,1,3.773,3.773,0,0,1-.961-2.522v-1.011a4.759,4.759,0,0,1,3.577-4.64,2.525,2.525,0,0,1,1.854.248,4.8,4.8,0,0,0,4.644,0,2.529,2.529,0,0,1,1.849-.244A4.754,4.754,0,0,1,702.75,1243.967Z" transform="translate(-687.252 -1228.25)" fill="#fff"/>
</svg>
