<svg xmlns="http://www.w3.org/2000/svg" width="60" height="60" viewBox="0 0 60 60">
    <path id="Path_46269" d="M30,0A30,30,0,1,1,0,30,30,30,0,0,1,30,0Z" fill="#fff" opacity="0.2"/>
    <path id="Icon_awesome-user-alt"  d="M14.561,17.771c4.522,0,8.19-3.98,8.19-8.886S19.083,0,14.561,0,6.37,3.98,6.37,8.886,10.039,17.771,14.561,17.771Zm7.28,1.975H18.707a9.2,9.2,0,0,1-8.293,0H7.28c-4.021,0-7.28,3.536-7.28,7.9v.987a2.854,2.854,0,0,0,2.73,2.962H26.391a2.854,2.854,0,0,0,2.73-2.962v-.987C29.122,23.281,25.862,19.746,21.841,19.746Z" transform="translate(15.439 14.203)" fill="#fff"/>
</svg>
