<?xml version="1.0" encoding="UTF-8"?>
<svg id="Layer_1" data-name="Layer 1" xmlns="http://www.w3.org/2000/svg" version="1.1" viewBox="0 0 512 512">
  <defs>
    <style>
      .cls-1 {
        fill: #000;
        stroke-width: 0px;
      }
    </style>
  </defs>
  <path class="cls-1" d="M510.8,260c-2.7,7.1-8,11.2-14.7,14.4-14.8,7-29.4,14.5-44.1,21.8-12.7,6.3-19.2,4.9-28.3-6.2-8,5.1-16.1,10.1-24.5,15.4,8,9,10.7,18.8,5.1,29.5-5.7,10.9-15.4,14.3-27.1,12.8-4.7,19.5-13.7,25.4-34,22.5-5.1,18.5-16.6,25.3-34.9,20.2-.4,1.1-.8,2.3-1.1,3.5-5,17.2-23.3,23.7-38.1,13.6-5-3.5-9.9-7.2-15.6-11.3-3.2,3.4-6.4,6.8-9.5,10.2-7.4,8.1-16.1,12.2-27.1,8.8-9.6-3-14.6-10.1-16.7-23.4-15.1-1.3-23.7-9.4-25-25.1-15.3-1.3-23.8-9.6-25-24.5-4.2-1.2-8.4-1.9-12-3.7-9.2-4.4-13.9-14.5-12.4-25,.2-1.3,0-3.5-1-4.1-11.4-7.9-23-15.6-34.8-23.5-1,1.9-1.8,3.5-2.7,5-4.7,8.1-14.3,11.6-22.8,7.5-18.1-8.7-36-17.6-53.9-26.7-9.4-4.9-12-15-6.9-25.2,17.2-34.7,34.5-69.4,51.7-104.2,2.1-4.3,4.1-8.7,6.4-12.9,4.8-8.8,14.3-12.2,23.4-7.9,17.9,8.6,35.8,17.4,53.4,26.5,9.5,4.9,11.6,13.8,7,25.9,6.1,3.4,11.8,5.5,19.5,4,20.2-4,40.6-3.7,60.8.4,4.1.8,7.4.6,10.4-2.5,6.7-6.9,14.4-8,23.9-6.5,29,4.7,58.1,8.1,87.1,12.6,8,1.2,12.7-4.4,19.6-6.3-.8-2-1.5-3.4-2.1-4.9-3.4-8.6-.5-18.1,7.7-22.3,18.1-9.3,36.3-18.5,54.7-27.2,9.1-4.3,18.6,0,23.5,9.8,11.4,22.8,22.7,45.7,34.1,68.6,8.7,17.5,17.3,35,25.9,52.6v8-.2ZM140.3,184.1c-15.4,31-30.2,60.8-45.1,90.8,12.8,8.6,25.3,17,38.7,26,5.5-6,10.5-12.1,16.2-17.3,6.8-6.2,15.1-7.3,23.7-3.8,8.4,3.4,13.2,9.7,14.6,18.7.2,1.4.5,2.8.7,4.3,15.7,1.3,23.8,10,25.1,25,16,2,21.3,7.3,25.2,24.9,20.1,3.8,25.9,12.1,22.8,32.7-.1,1,.6,2.5,1.4,3.2,4.3,3.4,8.7,6.7,13.2,9.7,5.8,3.8,12.9,2.3,16.8-3.1,3.7-5.2,2.9-12.1-2.1-16.6-1.4-1.2-2.9-2.2-4.3-3.3-8.7-6.4-17.3-12.8-26.1-19.2-3.4-2.4-5.2-5.3-2.8-9.3,2-3.2,5.8-3.2,10-.3.9.7,1.9,1.4,2.8,2.1,12.8,9.4,25.5,19.1,38.6,28.2,3,2.1,7.3,3.3,11,3.2,5-.2,8.5-3.7,9.7-8.7,1.4-5.5-.3-10.2-5-13.6-10.3-7.6-20.6-15.1-30.8-22.7-4-3-4.8-6.3-2.3-9.3,2.8-3.3,6.1-2.8,9.3-.4,3.9,2.8,7.7,5.7,11.6,8.5,10.6,7.8,21.1,15.6,31.7,23.2,4.9,3.5,10,3.5,14.4.4s6.5-7.6,4.9-12.5c-1.1-3.3-3.6-6.7-6.5-8.9-10.1-7.9-20.5-15.2-30.8-22.8-.7-.5-1.4-.9-2-1.5-3.8-3-4.7-6.5-2.2-9.3,2.9-3.3,6-2.7,9.2-.3,13.7,10.1,27.5,20.3,41.3,30.3,2,1.4,4.2,2.8,6.5,3.4,5.8,1.6,11.7-1.4,14.1-6.6,2.7-5.8,1-11.7-5-16.1-19.6-14.2-39.3-28.4-59-42.4-1.7-1.2-4.3-1.7-6.4-1.7-27.4-.2-50.8-9.8-70.2-29.2-.9-.9-1.9-1.7-2.6-2.3-10.9,7.1-21.3,14.4-32.1,20.8-17.8,10.6-43.3,2.3-52-16.6-3.7-8-2.6-12.3,4.5-17.6,14.1-10.5,28.2-21,42.3-31.5,1.3-1,2.6-2.1,4.5-3.7-15.8-2.3-30.4-2.7-44.8-.3-11.4,1.9-22.5,4.4-33-4.6h.3ZM177.1,234.7c5.3,14.1,23.4,20.9,35.7,13.3,11.1-6.9,21.8-14.4,32.6-21.8,6.6-4.5,8.1-4.4,13.3,1.5,16.7,19,37.8,28.8,63,29,7.1,0,12.6,1.9,18.1,6,16.1,12,32.5,23.5,48.8,35.3,10.1-6.4,20-12.6,30-19-15.6-31.3-30.9-62.1-46.2-93-5,2.4-9.2,4.7-13.6,6.4-2.8,1.1-6.1,2-9,1.6-31.4-4.2-62.7-8.7-94-13.2-3.5-.5-6.3-.3-9.2,2.1-4.6,3.8-9.5,7.2-14.3,10.7-18.4,13.6-36.7,27.3-55.2,41h0ZM76.9,130.9c-1.7,1.9-4.2,3.6-5.3,6-19.1,38.1-38,76.2-56.9,114.4-2.9,5.8-2.1,8.1,3.8,11,16.2,8.1,32.3,16.1,48.5,24.1,5.8,2.9,8.1,2,11-3.8,18.9-38,37.8-76,56.6-114,3-6.1,2.3-8.3-4-11.4-16.2-8.1-32.3-16.1-48.5-24.1-1.3-.7-2.7-1.2-5.2-2.2h0ZM435.2,130.9c-2.7,1.1-4.4,1.7-6,2.5-16,7.9-32.1,15.9-48.1,23.9s-6.9,5.2-3.9,11.4c18.8,38,37.7,76,56.6,114,2.9,5.8,5.3,6.6,11.1,3.7,16.2-8,32.4-16.1,48.5-24.1,5.9-2.9,6.6-5.2,3.8-11-7-14.3-14.1-28.5-21.2-42.7-11.8-23.7-23.5-47.5-35.5-71.2-1.2-2.4-3.5-4.3-5.3-6.4h0ZM137.2,316.3c.5,6.3,2.7,10,7.2,11.9,4.7,2,9.2,1.2,12.9-2.3,5.3-5,10.4-10.2,15.5-15.4,5.2-5.4,5.3-12.5.5-17.2-4.7-4.6-11.5-4.5-16.9.6-5.3,5-10.5,10.1-15.3,15.5-2,2.2-2.9,5.3-3.8,7h0ZM227,353.3c-.4-6.2-2.4-10-6.9-12.1-4.7-2.2-9.2-1.5-12.9,2-5.4,5.1-10.7,10.4-15.8,15.8-5.1,5.3-5.3,12-.6,16.9,4.8,5,11.7,4.9,17.2-.4,5.1-4.9,10.3-9.9,15-15.2,2-2.2,3.1-5.3,4-6.9h0ZM222.8,405.4c3.6-1.4,6.3-1.8,8-3.3,6.4-5.9,12.8-12,18.6-18.5,4-4.5,3.1-11.1-1.2-15.3-4.1-3.9-10.7-4.7-14.9-.8-6.5,5.9-12.7,12.1-18.5,18.6-3.1,3.4-3.5,8.3-.7,12,2.3,3,5.9,5,8.8,7.3h-.1ZM201.8,328.2c-.4-6.3-2.5-10-6.7-12-4.7-2.2-9.2-1.6-12.9,1.9-5.4,5.1-10.7,10.4-15.9,15.8-5.1,5.3-5.2,12.1-.5,16.9s11.6,4.7,16.9-.3c5.2-4.9,10.3-9.9,15.1-15.2,2.1-2.3,3.2-5.6,4-7.1h0Z"/>
  <path class="cls-1" d="M249.9,92.8v-29.9c0-5.4,2-8,6-8s6,2.6,6,8v59.7c0,5.5-2,8-6,8s-5.9-2.5-6-8v-29.9h0Z"/>
  <path class="cls-1" d="M147.6,86.5c.9.8,3.1,1.8,4.1,3.6,10.2,17.4,20.3,34.9,30.4,52.4,1.9,3.4,1.6,6.6-1.8,8.6-3.4,2-6.5.8-8.4-2.5-10.2-17.6-20.4-35.2-30.5-52.9-2.6-4.6.1-9.2,6.2-9.2Z"/>
  <path class="cls-1" d="M327.9,146.9c1.1-2.4,1.6-3.9,2.4-5.3,9.7-16.9,19.5-33.8,29.2-50.8,2.1-3.6,4.8-5.6,8.9-3.7,3.4,1.6,4,5.2,1.5,9.5-9.8,17.1-19.7,34.1-29.5,51.2-1.7,3-4,5.3-7.6,3.8-2-.8-3.3-3.1-5-4.7h.1Z"/>
  <path class="cls-1" d="M123,352.9c1.6,1.5,4.5,2.9,4.7,4.6.3,2.3-.8,5.7-2.6,7-4.8,3.5-10.2,6.2-15.3,9.2-7.5,4.3-14.9,8.6-22.4,12.9-4.1,2.3-7.7,1.7-9.5-1.4-1.8-3.2-.6-6.4,3.6-8.9,12.2-7.1,24.4-14.1,36.6-21.1,1.3-.7,2.7-1.2,4.9-2.2h0Z"/>
  <path class="cls-1" d="M388.8,352.8c2.5,1.2,4.1,1.8,5.5,2.6,11.9,6.8,23.9,13.7,35.8,20.6,4.5,2.6,5.9,6.1,3.7,9.3-2.7,3.8-6,3.2-9.6,1.1-12.2-7.1-24.4-14.1-36.6-21.2-2.8-1.6-5-3.9-3.6-7.2.9-2.1,3.2-3.5,4.9-5.2h0Z"/>
  <path class="cls-1" d="M178,409.3c5.4-.1,8.7,4.2,6.5,8.2-6.8,12.3-13.9,24.5-21.1,36.6-1.7,2.9-4.7,3.7-7.8,1.9-2.9-1.7-4.1-4.6-2.3-7.7,6.9-12.3,14-24.4,21.2-36.5.8-1.3,2.8-2,3.5-2.4h0Z"/>
  <path class="cls-1" d="M326.1,414.3c1.3-1.4,2.7-4.3,4.4-4.5,2.3-.3,5.8.8,7,2.6,4.3,6.2,7.8,13,11.6,19.6,3,5.1,6,10.3,8.9,15.5,1.9,3.4,1.4,6.5-2,8.6-3.3,1.9-6.3.8-8.1-2.3-6.9-11.8-13.7-23.7-20.5-35.7-.5-.8-.7-1.8-1.3-3.8h0Z"/>
  <path class="cls-1" d="M261.9,455.5v18.4c0,4-1.5,6.8-5.8,7.2-3.8.3-6.1-2.5-6.1-7.3v-37.2c0-4,1.5-6.8,5.8-7.2,3.8-.3,6.1,2.5,6.1,7.3v18.8h0Z"/>
  <path class="cls-1" d="M80,258.2c0,9-7.2,16-16.3,15.8-8.7-.1-15.8-7.3-15.7-16,0-8.8,7.5-16,16.4-15.9,8.6.1,15.7,7.4,15.6,16.1h0ZM69.9,258.2c-2.8-1.9-4.5-4-5.9-3.8-1.5.2-3.3,2.4-3.7,4-.2.9,2.3,3.3,3.6,3.4,1.5,0,3.1-1.8,5.9-3.6h0Z"/>
  <path class="cls-1" d="M464.5,258.7c0,8.9-7.2,16.2-16,16.2s-15.8-7.1-16-15.8c-.2-8.9,7.1-16.1,16.1-16.1s15.8,7,15.9,15.7h0ZM454.3,258.6c-2.9-1.7-4.6-3.5-6.1-3.4-1.3.1-3.7,2.6-3.4,3.5.4,1.6,2.3,3.7,3.8,3.9,1.3.2,3-2,5.7-4Z"/>
</svg>