<svg id="Layer_1" data-name="Layer 1" xmlns="http://www.w3.org/2000/svg" viewBox="0 0 122.88 103.18"><title>working-hours</title><path d="M51.15,96.53a2.89,2.89,0,0,1,0,5.77,51.15,51.15,0,1,1,43.55-78l.61-3a2.76,2.76,0,1,1,5.41,1l-2,9.85a2.75,2.75,0,0,1-3.3,2.07L85.78,32A2.75,2.75,0,0,1,87,26.64l2.76.64A45.4,45.4,0,1,0,51.15,96.53ZM70.9,49.38a2.26,2.26,0,0,1,0,3.54L66,56.7a2.22,2.22,0,0,1-3.4-2.62H56.2a5.84,5.84,0,1,1-8.3-7.78L48,35.93a2.21,2.21,0,0,1-2.63-3.41l3.89-4.82a2.21,2.21,0,0,1,1.65-.82h0a2.2,2.2,0,0,1,1.83.91l3.68,5a2.22,2.22,0,0,1-2.59,3.38l-.07,9.79a5.84,5.84,0,0,1,2.42,2.28h6.4A2.22,2.22,0,0,1,66,45.6l4.9,3.78ZM82.44,77.3l5.1,13.39,2.57-7.3L88.85,82c-.94-1.38-.62-3,1.13-3.23a11.93,11.93,0,0,1,1.9,0,10.36,10.36,0,0,1,2.09.08c1.62.36,1.79,1.93,1,3.19l-1.26,1.37,2.57,7.3,4.61-13.39c3.33,3,12.29,3.6,16,5.64,5.08,2.85,4.94,7.4,6,12.49C112.76,105.55,71,106,60.43,95.43c1.11-5,1-9.69,6.06-12.49,4.5-2.51,12.26-2.32,16-5.64Zm-.94-9A2.28,2.28,0,0,1,80.25,68a2.9,2.9,0,0,1-1.19-1.41c-.55-1.23-1-4.47.4-5.4l-.26-.17,0-.36c0-.65-.07-1.44-.08-2.27,0-3-.11-6.74-2.63-7.48l-1.08-.32.71-.85a40.54,40.54,0,0,1,6.3-6.23,16.17,16.17,0,0,1,7.3-3.45A8.94,8.94,0,0,1,96.78,42a13.86,13.86,0,0,1,1.91,1.86,8.09,8.09,0,0,1,5.68,3.24,10.92,10.92,0,0,1,1.84,3.63,11.93,11.93,0,0,1,.5,4.12,9.75,9.75,0,0,1-2.95,6.68,2.16,2.16,0,0,1,.92.23,2.2,2.2,0,0,1,.81,2.73c-.27.83-.62,1.8-.95,2.61-.39,1.09-1,1.3-2.1,1.18-2.52,11-17.75,11.4-20.94,0ZM30.2,19.77a2.46,2.46,0,1,1,4.26-2.45l1.83,3.18A2.46,2.46,0,1,1,32,23L30.2,19.77ZM17.31,34.46a2.47,2.47,0,0,1,2.47-4.27L23,32a2.46,2.46,0,1,1-2.46,4.26l-3.19-1.83ZM13.5,53.61a2.46,2.46,0,1,1,0-4.92h3.68a2.46,2.46,0,0,1,0,4.92ZM19.77,72.1a2.46,2.46,0,0,1-2.45-4.26L20.5,66A2.46,2.46,0,1,1,23,70.26L19.77,72.1ZM67.84,17.31a2.46,2.46,0,0,1,4.26,2.47L70.26,23A2.46,2.46,0,1,1,66,20.5l1.84-3.19ZM34.46,85a2.46,2.46,0,0,1-4.27-2.46L32,79.33a2.46,2.46,0,0,1,4.26,2.47L34.46,85ZM48.69,13.5a2.46,2.46,0,0,1,4.91,0v3.68a2.46,2.46,0,1,1-4.91,0V13.5Zm4.92,75.29a2.46,2.46,0,1,1-4.92,0V85.12a2.46,2.46,0,1,1,4.92,0v3.67Z"/></svg>