<?xml version="1.0" standalone="no"?>
<!DOCTYPE svg PUBLIC "-//W3C//DTD SVG 20010904//EN"
 "http://www.w3.org/TR/2001/REC-SVG-20010904/DTD/svg10.dtd">
<svg version="1.0" xmlns="http://www.w3.org/2000/svg"
 width="512.000000pt" height="512.000000pt" viewBox="0 0 512.000000 512.000000"
 preserveAspectRatio="xMidYMid meet">

<g transform="translate(0.000000,512.000000) scale(0.100000,-0.100000)"
fill="#000000" stroke="none">
<path d="M2160 5106 c-405 -72 -725 -346 -857 -731 -41 -121 -53 -221 -53
-448 l0 -210 -39 -42 c-127 -138 -127 -338 -1 -470 l39 -40 3 -195 c3 -193 3
-196 32 -255 38 -76 105 -143 181 -181 l60 -29 233 -3 232 -3 0 -64 0 -63
-417 -5 c-469 -5 -473 -5 -618 -80 -109 -56 -215 -163 -272 -272 -76 -148 -78
-158 -78 -606 0 -376 1 -398 19 -418 13 -14 31 -21 57 -21 68 0 67 -4 71 435
4 369 5 394 26 456 66 201 232 329 455 354 l57 6 0 -135 c0 -123 2 -138 20
-156 30 -30 83 -27 109 6 19 24 21 40 21 155 l0 129 105 0 105 0 0 -395 0
-395 -105 0 -105 0 0 109 c0 94 -3 112 -21 135 -26 33 -79 36 -109 6 -20 -20
-20 -33 -20 -600 l0 -580 -270 0 -270 0 0 108 c0 129 -10 152 -69 152 -63 0
-75 -23 -79 -150 l-4 -109 -182 -3 c-178 -3 -183 -4 -223 -30 -64 -42 -78 -82
-78 -224 0 -115 1 -122 28 -163 18 -27 44 -50 70 -62 41 -18 104 -19 2347 -19
2226 0 2306 1 2346 19 78 36 109 114 102 259 -5 106 -26 154 -81 190 l-40 27
-293 5 -293 5 31 50 c46 74 77 148 98 239 32 133 22 227 -27 255 -15 8 -15 13
-4 37 21 48 51 187 51 242 0 58 -11 88 -42 112 -19 16 -19 17 8 95 35 105 44
225 20 269 -30 56 -45 61 -230 66 l-169 5 -18 53 c-60 177 -227 341 -408 402
-99 33 -198 40 -578 40 l-353 0 0 64 0 65 233 3 c228 3 233 3 289 30 74 34
152 112 186 186 26 55 27 64 30 254 3 178 5 199 21 207 33 18 90 115 107 180
28 112 -2 224 -84 313 l-40 43 -4 250 c-5 276 -12 321 -82 490 -122 301 -408
547 -731 631 -124 31 -329 41 -445 20z m402 -165 c279 -73 506 -260 624 -515
66 -144 76 -199 81 -433 l5 -213 -54 0 -53 0 -12 61 c-33 175 -178 322 -353
360 -31 7 -114 9 -208 7 -128 -4 -170 -9 -227 -28 -38 -12 -234 -107 -434
-211 l-363 -189 -85 0 -85 0 5 208 c3 173 8 220 26 287 97 350 383 612 744
681 99 19 289 11 389 -15z m251 -901 c70 -26 125 -75 162 -141 l30 -54 0 -325
0 -325 -27 -73 c-76 -208 -232 -362 -434 -428 -80 -26 -102 -29 -214 -28 -110
0 -135 3 -205 28 -206 71 -356 220 -429 425 l-31 86 0 228 0 229 355 183 c195
101 379 190 410 198 34 9 107 15 192 16 115 1 146 -2 191 -19z m-1303 -600 l0
-190 -49 0 c-61 0 -97 13 -134 48 -42 39 -60 80 -60 137 -1 113 80 192 201
194 l42 1 0 -190z m1787 169 c115 -56 145 -200 60 -296 -39 -45 -82 -63 -147
-63 l-50 0 0 190 0 190 47 0 c27 0 65 -9 90 -21z m-1722 -593 c58 -133 140
-241 248 -328 l49 -38 -145 0 c-80 0 -158 5 -174 11 -56 21 -102 61 -128 112
-23 47 -25 61 -25 189 l0 139 70 -3 71 -3 34 -79z m1695 -59 l0 -143 -32 -54
c-26 -42 -45 -61 -87 -82 -51 -27 -59 -28 -203 -28 l-150 0 49 38 c60 48 129
122 171 184 33 49 95 171 105 208 5 18 13 20 76 20 l71 0 0 -143z m-935 -442
c55 0 122 3 148 7 l48 8 -3 -168 c-3 -193 -14 -225 -87 -277 -36 -26 -52 -30
-105 -30 -77 0 -134 33 -168 98 -21 38 -23 59 -26 210 l-4 168 49 -8 c26 -4
93 -8 148 -8z m-328 -355 c27 -107 89 -181 193 -229 80 -37 192 -37 271 0 104
49 180 143 197 241 l8 43 97 3 97 3 0 -174 0 -174 -40 -16 c-23 -9 -48 -28
-60 -49 -18 -28 -21 -43 -16 -103 4 -38 18 -109 33 -157 21 -72 24 -90 13
-103 -11 -13 -75 -15 -506 -15 l-494 0 0 388 c0 214 3 392 7 396 4 4 47 5 96
4 l90 -3 14 -55z m1223 -115 l0 -175 -105 0 -105 0 0 175 0 175 105 0 105 0 0
-175z m321 144 c78 -22 173 -83 227 -144 34 -38 102 -151 102 -169 0 -3 -112
-6 -250 -6 l-250 0 0 168 c0 93 3 172 7 176 10 9 86 -2 164 -25z m744 -516
c-7 -49 -23 -102 -50 -167 l-15 -36 -200 0 c-187 0 -201 -1 -220 -20 -12 -12
-20 -33 -20 -52 0 -73 18 -78 284 -78 211 0 226 -1 226 -18 0 -28 -28 -129
-51 -183 l-21 -49 -624 0 -624 0 -19 38 c-19 38 -45 120 -55 180 l-5 32 313 0
c302 0 314 1 340 21 33 26 36 79 6 109 -19 19 -33 20 -304 20 l-284 0 -25 69
c-14 37 -29 86 -32 107 -4 22 -9 47 -12 57 -4 16 34 17 697 17 l702 0 -7 -47z
m-1531 -435 c4 -24 16 -73 28 -110 l22 -68 -28 -29 c-37 -38 -42 -89 -22 -191
21 -102 56 -197 101 -273 19 -32 35 -60 35 -63 0 -2 -328 -4 -730 -4 l-730 0
0 390 0 390 659 0 658 0 7 -42z m1536 -336 c0 -38 -43 -170 -76 -233 -19 -36
-54 -89 -77 -117 l-42 -51 -502 0 -501 -1 -41 48 c-76 92 -122 192 -155 345
l-6 27 700 0 c663 0 700 -1 700 -18z m548 -564 c16 -16 16 -160 0 -176 -17
-17 -4559 -17 -4576 0 -16 16 -16 160 0 176 17 17 4559 17 4576 0z"/>
<path d="M1945 3665 c-22 -21 -25 -33 -25 -98 0 -86 15 -113 67 -123 26 -5 37
-1 57 19 23 23 26 34 26 102 0 67 -3 79 -25 100 -13 14 -36 25 -50 25 -14 0
-37 -11 -50 -25z"/>
<path d="M2625 3665 c-22 -21 -25 -33 -25 -98 0 -86 15 -113 67 -123 26 -5 37
-1 57 19 23 23 26 34 26 102 0 67 -3 79 -25 100 -13 14 -36 25 -50 25 -14 0
-37 -11 -50 -25z"/>
<path d="M2285 3555 c-14 -13 -25 -34 -25 -47 0 -14 -17 -37 -46 -63 -41 -36
-47 -46 -51 -90 -6 -70 19 -106 102 -147 53 -26 69 -30 92 -22 64 22 68 100 7
136 l-35 21 25 26 c31 32 56 91 56 131 0 38 -39 80 -75 80 -14 0 -37 -11 -50
-25z"/>
<path d="M2124 3059 c-27 -9 -54 -47 -54 -73 0 -31 82 -101 144 -125 75 -28
167 -28 242 0 60 23 129 77 139 111 10 29 -13 75 -43 86 -32 11 -60 2 -108
-34 -23 -18 -52 -29 -84 -32 -61 -6 -86 1 -135 34 -52 35 -76 43 -101 33z"/>
<path d="M4052 3476 c-13 -7 -41 -41 -61 -77 -31 -53 -47 -69 -100 -99 -69
-39 -90 -67 -91 -118 0 -51 27 -87 94 -124 48 -26 66 -44 93 -90 43 -74 74
-98 127 -98 52 1 79 21 119 94 27 48 44 64 102 99 57 35 72 49 82 80 10 29 10
45 0 74 -10 31 -25 45 -82 80 -58 35 -75 51 -102 99 -18 32 -42 66 -55 76 -27
21 -93 23 -126 4z m142 -271 c20 -11 36 -22 36 -25 0 -3 -16 -14 -36 -25 -19
-10 -46 -37 -59 -59 l-24 -39 -22 37 c-12 21 -40 49 -62 63 l-41 26 37 19 c20
10 49 37 63 60 l26 41 23 -40 c13 -22 40 -48 59 -58z"/>
<path d="M4300 2783 c-29 -11 -51 -37 -88 -104 -33 -60 -43 -71 -104 -104 -83
-44 -108 -74 -108 -127 0 -59 25 -91 104 -135 61 -35 76 -48 104 -99 50 -90
82 -117 134 -117 60 0 88 22 133 103 35 64 45 74 115 114 82 48 100 72 100
135 0 51 -26 82 -109 127 -60 33 -71 44 -102 102 -43 81 -78 112 -127 111 -20
0 -44 -3 -52 -6z m158 -309 l52 -32 -53 -30 c-40 -23 -59 -42 -81 -82 -31 -56
-30 -56 -67 13 -13 25 -37 47 -75 69 l-57 31 47 24 c44 23 98 83 112 125 5 17
11 12 38 -33 23 -38 48 -63 84 -85z"/>
</g>
</svg>
