<?xml version="1.0" encoding="UTF-8"?>
<svg id="Layer_1" data-name="Layer 1" xmlns="http://www.w3.org/2000/svg" version="1.1" viewBox="0 0 512 512">
  <defs>
    <style>
      .cls-1 {
        fill: #231f20;
        stroke-width: 0px;
      }
    </style>
  </defs>
  <path class="cls-1" d="M499.7,285.7c-3.6-5.8-9.2-9.9-15.8-11.6-6.6-1.7-13.5-.7-19.4,2.7l-36.4,21c-9.8,5.6-20.2,10.2-31,13.5l-20.5,6.3c-2.6-2.6-6-5.1-10.3-7.3-7.9-4-18.5-6.9-31.6-8.6-21.8-2.8-45.3-1.7-57.5-.8-1.6.1-3.2-.3-4.6-1.1-22.4-13.8-44.3-23.3-65-28.2-16.9-4-33-5.1-48-3.1-21.3,2.8-34.4,11-39,14.4l-11.3,3.5-3.4-14.7c-2.4-10.3-12.7-16.8-23.1-14.4l-52.6,12.1c-5,1.2-9.3,4.2-12,8.5-2.7,4.4-3.6,9.5-2.4,14.5l29.3,127.4c1.2,5,4.2,9.3,8.5,12,3.1,1.9,6.6,2.9,10.2,2.9s2.9-.2,4.3-.5l52.6-12.1h0c8.3-1.9,14.1-8.9,14.8-17l9.9-2.6c2.5-.6,5.1-.7,7.6,0l115.4,28c5.2,1.3,10.5,1.9,15.8,1.9,7.7,0,15.5-1.4,22.8-4l95.9-34.9c2.8-1,5.4-2.5,7.7-4.5l83.4-69.5c4.8-4,8-9.6,9-15.8,1-6.2-.2-12.6-3.5-17.9ZM66.8,410.9l-27.6-119.9,45.1-10.4,27.6,119.9-45.1,10.4ZM481.9,304.7l-83.4,69.5c-.6.5-1.3.9-2,1.2l-95.9,34.9c-8.8,3.2-18.4,3.8-27.5,1.5l-115.4-28c-5.6-1.4-11.4-1.3-17,.1l-8.4,2.2-18.6-81,14.3-4.4,1.9-.5,1.5-1.4c.7-.6,11.6-9.1,32.2-11.5,28.6-3.3,62.8,6.7,99,28.8,4.9,3,10.4,4.3,16.1,3.9,49.2-3.7,85.9,3.3,87.2,16.6.4,4.3-.2,7.2-1.8,8.8-1.7,1.6-5.7,3.5-15.7,3.5s-.4,0-.6,0c-9.3,0-20.6-1.7-32.5-3.3-15-2.1-30.5-4.3-44-3.6-12.5.6-21.9,3.7-28.6,9.4-4.3,3.7-3.6,10.5,1.4,13.3l2.8,1.6c2.8,1.6,6.3,1.3,8.8-.6,10.1-7.6,34.8-4.1,56.9-1,26.6,3.8,51.6,7.3,64.8-5.3,6-5.8,8.6-13.9,7.6-24.2l17.8-5.5c12.2-3.7,23.9-8.9,34.9-15.2l36.4-21c3.2-1.9,7.3-.8,9.3,2.3,1.8,2.9,1.2,6.7-1.4,8.9Z"/>
  <circle class="cls-1" cx="81.5" cy="382.9" r="13.5" transform="translate(-71.4 22.5) rotate(-11)"/>
  <path class="cls-1" d="M333.6,158.3c30.3,0,55-24.7,55-55s-24.7-55-55-55-55,24.7-55,55,24.7,55,55,55ZM333.6,67.6c19.7,0,35.7,16,35.7,35.7s-16,35.7-35.7,35.7-35.7-16-35.7-35.7,16-35.7,35.7-35.7Z"/>
  <path class="cls-1" d="M256.8,264.1h125.2c-4.4-5.7-7.8-12.2-9.9-19.2h-115.3c-5.3,0-9.7-2.9-11.8-7.8-2.1-4.9-1.2-10.1,2.4-14,20.3-21.7,51.6-34.7,83.6-34.7s33,3.5,47,8.9c3.5-5.8,8-11,13.3-15.4-1-.4-2-.9-3.1-1.3-18.4-7.5-38.2-11.5-57.2-11.5s-38.7,4-56.6,12c-15.9,7.1-30.1,17-41.1,28.8-8.9,9.5-11.2,22.9-6,34.8,5.2,11.9,16.5,19.3,29.5,19.3Z"/>
  <path class="cls-1" d="M428.7,274.4c25.7,0,46.5-20.8,46.5-46.5s-20.8-46.5-46.5-46.5-46.5,20.8-46.5,46.5,20.8,46.5,46.5,46.5ZM401.2,227.9c0-4,3.3-7.3,7.3-7.3h12.9v-12.9c0-4,3.3-7.3,7.3-7.3s7.3,3.3,7.3,7.3v12.9h12.9c4,0,7.3,3.3,7.3,7.3h0c0,4-3.3,7.3-7.3,7.3h-12.9v12.9c0,4-3.3,7.3-7.3,7.3s-7.3-3.3-7.3-7.3v-12.9h-12.9c-4,0-7.3-3.3-7.3-7.3h0Z"/>
</svg>