<svg width="24" height="24" viewBox="0 0 24 24" fill="none" xmlns="http://www.w3.org/2000/svg">
<g clip-path="url(#clip0_1_85)">
<path fill-rule="evenodd" clip-rule="evenodd" d="M22.8103 12.75L13.5 3.43969C13.2197 3.15711 12.8377 2.99873 12.4397 3H3.75C3.33579 3 3 3.33579 3 3.75V12.4397C2.99873 12.8377 3.15711 13.2197 3.43969 13.5L12.75 22.8103C13.0313 23.0917 13.4129 23.2498 13.8108 23.2498C14.2087 23.2498 14.5902 23.0917 14.8716 22.8103L22.8103 14.8716C23.0917 14.5902 23.2498 14.2087 23.2498 13.8108C23.2498 13.4129 23.0917 13.0313 22.8103 12.75V12.75ZM13.8103 21.75L4.5 12.4397V4.5H12.4397L21.75 13.8103L13.8103 21.75ZM9 7.875C9 8.49632 8.49632 9 7.875 9C7.25368 9 6.75 8.49632 6.75 7.875C6.75 7.25368 7.25368 6.75 7.875 6.75C8.49632 6.75 9 7.25368 9 7.875V7.875Z" fill="#0D171C"/>
</g>
<defs>
<clipPath id="clip0_1_85">
<rect width="24" height="24" fill="white"/>
</clipPath>
</defs>
</svg>
