<svg width="24" height="24" viewBox="0 0 24 24" fill="none" xmlns="http://www.w3.org/2000/svg">
<g clip-path="url(#clip0_1_43)">
<path fill-rule="evenodd" clip-rule="evenodd" d="M15 3.75C15 2.09315 13.6569 0.75 12 0.75C10.3431 0.75 9 2.09315 9 3.75C9 5.40685 10.3431 6.75 12 6.75C13.6569 6.75 15 5.40685 15 3.75V3.75ZM12 5.25C11.1716 5.25 10.5 4.57843 10.5 3.75C10.5 2.92157 11.1716 2.25 12 2.25C12.8284 2.25 13.5 2.92157 13.5 3.75C13.5 4.57843 12.8284 5.25 12 5.25V5.25ZM20.4694 12.5672L16.2347 7.76531C15.6651 7.1197 14.8456 6.74991 13.9847 6.75H10.0153C9.15437 6.74991 8.33488 7.1197 7.76531 7.76531L3.53063 12.5672C2.81513 13.299 2.81861 14.4693 3.53844 15.1968C4.25827 15.9243 5.42849 15.9402 6.16781 15.2325L7.69594 14.0063L6.14531 19.9013C5.71764 20.8449 6.1359 21.9565 7.07953 22.3842C8.02316 22.8119 9.13482 22.3936 9.5625 21.45L12 17.2434L14.4375 21.45C14.8836 22.3605 15.9727 22.7515 16.896 22.3326C17.8193 21.9136 18.2424 20.8366 17.8509 19.9013L16.3041 14.0063L17.8322 15.2325C18.5715 15.9402 19.7417 15.9243 20.4616 15.1968C21.1814 14.4693 21.1849 13.299 20.4694 12.5672V12.5672ZM19.3903 14.1394C19.32 14.2098 19.2245 14.2494 19.125 14.2494C19.0255 14.2494 18.93 14.2098 18.8597 14.1394C18.84 14.1206 18.8203 14.1019 18.7987 14.085L15.4688 11.415C15.2167 11.2138 14.8643 11.1963 14.5935 11.3714C14.3228 11.5465 14.1943 11.8751 14.2744 12.1875L16.4194 20.3438C16.4304 20.3872 16.4455 20.4296 16.4644 20.4703C16.5233 20.5921 16.512 20.7361 16.435 20.8473C16.3579 20.9584 16.227 21.0195 16.0923 21.007C15.9576 20.9946 15.8401 20.9106 15.7847 20.7872C15.7755 20.7669 15.7652 20.7472 15.7537 20.7281L12.6488 15.375C12.5146 15.1437 12.2674 15.0013 12 15.0013C11.7326 15.0013 11.4854 15.1437 11.3512 15.375L8.25 20.7234C8.23857 20.7425 8.22825 20.7622 8.21906 20.7825C8.177 20.8728 8.10078 20.9426 8.00719 20.9766C7.86457 21.0288 7.7045 20.9899 7.60181 20.878C7.49912 20.766 7.4741 20.6032 7.53844 20.4656C7.55733 20.4249 7.57239 20.3826 7.58344 20.3391L9.72563 12.1875C9.80575 11.8751 9.67723 11.5465 9.40646 11.3714C9.13569 11.1963 8.78327 11.2138 8.53125 11.415L5.20125 14.085C5.17969 14.1019 5.16 14.1206 5.14031 14.1394C5.04654 14.2382 4.90652 14.2785 4.77458 14.2444C4.64263 14.2104 4.53953 14.1075 4.50527 13.9756C4.47101 13.8437 4.51098 13.7036 4.60969 13.6097C4.62094 13.5984 4.63125 13.5872 4.64156 13.575L8.89031 8.75719C9.17518 8.43456 9.58491 8.24983 10.0153 8.25H13.9847C14.4151 8.24983 14.8248 8.43456 15.1097 8.75719L19.3584 13.575C19.3687 13.5872 19.3791 13.5984 19.3903 13.6097C19.5363 13.7561 19.5363 13.993 19.3903 14.1394V14.1394Z" fill="#0D171C"/>
</g>
<defs>
<clipPath id="clip0_1_43">
<rect width="24" height="24" fill="white"/>
</clipPath>
</defs>
</svg>
